<?xml version="1.0" encoding="UTF-8" standalone="no"?>
<svg
   xmlns:dc="http://purl.org/dc/elements/1.1/"
   xmlns:cc="http://creativecommons.org/ns#"
   xmlns:rdf="http://www.w3.org/1999/02/22-rdf-syntax-ns#"
   xmlns:svg="http://www.w3.org/2000/svg"
   xmlns="http://www.w3.org/2000/svg"
   xmlns:sodipodi="http://sodipodi.sourceforge.net/DTD/sodipodi-0.dtd"
   xmlns:inkscape="http://www.inkscape.org/namespaces/inkscape"
   enable_background="new 0 0 1000 1569"
   height="803.8559"
   pretty_print="False"
   style="fill:none;stroke:#000000;stroke-linejoin:round"
   version="1.1"
   viewBox="0 0 894.19965 803.85588"
   width="894.19965"
   id="svg2"
   inkscape:version="0.48.4 r9939"
   sodipodi:docname="out.svg">
  <sodipodi:namedview
     pagecolor="#ffffff"
     bordercolor="#666666"
     borderopacity="1"
     objecttolerance="10"
     gridtolerance="10"
     guidetolerance="10"
     inkscape:pageopacity="0"
     inkscape:pageshadow="2"
     inkscape:window-width="1855"
     inkscape:window-height="1056"
     id="namedview38"
     showgrid="false"
     fit-margin-top="0"
     fit-margin-left="0"
     fit-margin-right="0"
     fit-margin-bottom="0"
     inkscape:zoom="0.60165711"
     inkscape:cx="263.71058"
     inkscape:cy="522.395"
     inkscape:window-x="65"
     inkscape:window-y="24"
     inkscape:window-maximized="1"
     inkscape:current-layer="svg2" />
  <defs
     id="defs4">
    <style
       type="text/css"
       id="style6">path { fill-rule: evenodd; }</style>
  </defs>
  <metadata
     id="metadata8">
    <views
       id="views10">
      <view
         h="1569.18593296"
         padding="0"
         w="1000"
         id="view12">
        <proj
           flip="auto"
           id="robinson"
           lon0="26.5820253746" />
        <bbox
           h="414.76"
           w="264.48"
           x="235.01"
           y="371.02"
           id="bbox15" />
      </view>
    </views>
    <rdf:RDF>
      <cc:Work
         rdf:about="">
        <dc:format>image/svg+xml</dc:format>
        <dc:type
           rdf:resource="http://purl.org/dc/dcmitype/StillImage" />
      </cc:Work>
    </rdf:RDF>
  </metadata>
  <path
     inkscape:connector-curvature="0"
     id="c4sa_pr_ec"
     d="m 470.6603,748.44425 0.0133,0.19456 0.0573,0.0177 -0.0706,-0.21226 z m 34.61113,-7.38748 -0.12121,0.21211 0.38286,0 -0.26165,-0.21211 z m -27.15797,-2.57885 0.10611,0.31794 0.10318,-0.17677 -0.20929,-0.14117 z m 237.05301,-156.39223 -0.0866,0.14018 10e-4,0.15771 0.0855,-0.29789 z m -43.57642,-83.59882 -10.00745,5.96964 -25.92085,4.5763 -8.2602,7.02786 2.31913,5.24368 -7.19675,6.19414 -2.99491,13.21118 -11.47956,-4.49854 -7.87336,-0.19629 -8.67002,-12.22639 -9.07593,-5.18914 0.0956,-0.085 -2.61581,7.31007 -14.39836,6.92411 -1.39279,-1.08718 -21.08391,9.76254 -10.49356,-2.87442 -18.49986,-8.76346 -5.32876,1.77065 -12.77534,7.71149 -6.92076,1.78736 -11.5823,-3.80265 -0.28802,-0.14063 0.0262,10.84813 1.87632,7.18456 -2.05122,7.9374 -6.79828,11.81006 -22.05219,4.18798 -10.75097,7.48263 -11.97212,0.38534 -3.56738,9.53392 -0.97638,9.58839 -19.45797,3.93372 0.24048,1.43088 0.41688,0.82841 -2.87876,12.11276 -5.61134,11.34952 -8.59406,4.50951 -6.17165,-4.3864 -6.9374,7.07156 0.565,2.8435 -11.348,-0.3337 -12.39653,6.09173 2.68834,6.91836 -1.56795,7.62415 3.71226,2.67115 1.60868,8.19058 -5.30088,-1.70568 -14.1247,4.85287 -4.49667,13.63368 -12.25463,17.85728 8.68842,2.62676 21.1003,-1.53361 1.45564,2.64392 13.06116,3.59612 3.64192,8.18465 -13.32281,6.08885 -2.76817,4.2909 9.26062,0.0357 4.23934,12.76758 0.10866,0 28.88073,4.95229 12.93601,5.48587 22.03366,3.22206 -1.65242,-2.1069 9.68149,-11.81851 9.90713,-0.76021 14.13354,4.03184 13.15797,-0.053 -4.48366,-5.53474 4.51323,-8.62326 5.41668,-3.69113 14.9852,-2.70126 22.92757,3.743 31.61867,-14.71838 28.75063,-19.56196 17.75206,-11.38913 28.14084,-23.10461 7.70625,-5.21808 3.15413,-4.74236 17.98472,-15.64262 15.10382,-17.61412 18.51239,-20.02359 19.9037,-15.23106 5.16442,-2.66368 18.08574,-19.92382 0.009,0 -4.97078,-11.90622 -14.03407,-11.63604 -9.09681,-0.88009 -9.0349,-4.76274 -24.60195,-6.98165 -1.15742,4.28254 -9.96511,-4.54926 5.33164,-11.20006 11.23222,-10.08588 -0.61033,-10.50394 -0.26228,0.13225 z m 24.15238,-1.93432 0.84546,18.25017 -1.74115,5.39676 4.645,13.36712 10.23295,-2.08823 3.43125,2.85397 7.33615,-0.69602 0.98298,-3.96805 6.16191,-3.6549 -7.83419,-9.05184 -1.37168,-7.10352 -3.94489,-6.12985 -9.10374,-0.24374 -9.64005,-6.93187 z" />
  <path
     inkscape:connector-curvature="0"
     id="c4sa_pr_gp"
     d="m 669.25496,191.7062 0.34707,1.65651 3.27826,2.51916 -9.65685,2.37847 -0.57476,3.01258 -6.81872,-0.52885 -4.10995,1.05731 -0.14709,5.93738 -13.16341,1.09218 -3.49025,12.79219 -4.40492,0.70467 1.13574,10.43179 -13.17165,5.44465 -5.11596,-6.22046 -9.75405,5.40981 -3.36447,15.77138 -7.049,2.4492 1.40157,8.73957 -7.89875,6.23814 1.87618,7.43569 7.34365,-2.89011 13.97373,-0.88857 -2.38405,10.8968 -2.12509,9.09134 0.32038,-0.0704 11.72013,0.4934 12.07584,-6.60716 2.33653,7.89345 13.41242,6.94111 0.27759,0.14137 0.55366,-1.02416 4.88282,-7.22163 0.0243,-6.25454 10.11337,-8.13995 10.83349,-1.90308 0.36811,-3.78807 6.25136,-3.11915 -5.52818,-4.79238 -3.92102,1.74444 -3.59598,-6.54514 -5.01248,-1.72811 1.02336,-11.01722 5.26686,-4.82431 11.94388,2.22952 2.5516,-10.74925 5.48068,-11.89396 5.26277,-2.18451 -2.90095,-3.91193 -4.28808,1.26857 -5.42767,6.62507 -8.67435,-0.44023 -2.31375,-11.08295 1.92007,-9.40832 6.79233,-8.21053 -0.61042,-5.63769 -6.45885,0.8586 -0.8071,-0.17168 z" />
  <path
     inkscape:connector-curvature="0"
     id="c4sa_pr_kzn"
     d="m 816.67618,440.95241 0.23648,-0.334 -0.96828,1.05451 0.7318,-0.72051 z m 25.70404,-18.68671 -0.11852,-0.0176 0.008,0.0879 0.11059,-0.0703 z m -35.62493,-98.2205 -6.46162,7.95571 -13.91751,-4.24044 -8.02057,0.68734 -5.95693,-2.60678 -7.40228,1.97277 -13.29243,-0.29941 -8.16832,5.4949 -15.84188,0.51098 -3.81001,3.83894 -0.29267,-0.12293 -0.28946,0.0526 -2.90476,4.45562 3.1112,3.0818 -5.6616,6.47984 1.42691,9.10328 -6.22319,13.78283 2.27412,7.09342 -4.32224,5.89575 -5.45541,0.96734 -32.44111,22.71217 -4.07296,9.15985 0.23642,0.16111 19.81621,20.78505 0.6595,-0.58348 6.26192,22.15375 -4.85495,2.10424 -2.99455,10.12543 -6.46463,2.58755 -3.49641,10.26713 1.09118,2.30147 -6.39413,7.90643 -1.0408,0.52514 0.61033,10.50394 -11.23222,10.08588 -5.33164,11.20006 9.96511,4.54926 1.15742,-4.28254 24.60195,6.98165 9.0349,4.76275 9.09681,0.88008 14.03407,11.63605 4.97078,11.90622 0.0207,0 21.99441,-30.15775 19.74181,-33.27647 10.15279,-11.27999 11.46111,-22.97837 22.703,-25.50761 -0.33462,-1.23028 25.17452,-16.03128 -0.65018,-2.53193 21.41962,-18.02634 9.98192,-23.06671 4.59214,-21.89724 5.51347,-17.80166 11.35881,-29.00866 1.81028,-6.44767 -4.80411,-7.23625 -32.87602,-0.75646 -8.11086,-2.77485 -4.3387,31.21732 -25.647,0.76102 -11.0679,-4.34104 -0.0998,-0.16055 z m -111.01286,172.50735 9.64005,6.93187 9.10374,0.24374 3.94489,6.12985 1.37168,7.10352 7.83419,9.05184 -6.16191,3.6549 -0.98298,3.96805 -7.33615,0.69602 -3.43125,-2.85397 -10.23295,2.08823 -4.645,-13.36712 1.74115,-5.39676 -0.84546,-18.25017 z" />
  <path
     inkscape:connector-curvature="0"
     id="c4sa_pr_lim"
     d="m 551.00424,158.65506 -0.59199,6.78922 10.00935,5.52859 10.89298,0.96884 14.25715,-6.95707 0.59318,9.82831 5.2031,6.53484 7.31952,0.33501 4.26811,4.31611 6.81074,1.93757 4.59054,-3.31172 12.89968,-3.64681 14.41711,0.82781 7.60984,3.92882 -4.83411,3.54063 -0.19771,6.1665 3.38391,-0.7756 3.27374,5.39106 0.81063,1.74421 4.10995,-1.05731 6.81872,0.52885 0.57476,-3.01258 9.65685,-2.37847 -3.27826,-2.51916 -0.34707,-1.65651 -5.99466,1.94255 -7.63143,2.49754 -0.0709,-3.68227 5.48456,-3.78749 7.46574,-1.56767 0.44185,-4.77408 18.48252,-4.65127 -0.0585,-4.20911 5.00228,0.95111 3.03086,5.98874 5.90754,-2.60689 1.11987,-6.905 5.20838,-0.0526 14.51498,20.75106 8.05603,2.97697 2.96327,-2.09592 -0.65204,-8.47349 18.21121,-14.39192 3.04033,-0.24654 -1.77462,-13.7907 7.70471,2.21911 0.43266,-3.98025 6.27571,1.77895 1.02688,-2.67669 9.72353,5.82592 5.18686,-7.90407 8.154,-2.76629 4.25143,4.17342 2.28412,16.9553 4.2727,1.69574 2.82068,9.26159 5.1531,3.12404 16.24356,-3.81938 -5.61217,-13.27791 14.07319,-6.80847 -10.97462,-11.53421 6.66059,-23.96697 -2.34242,-3.60517 15.99312,0.26362 8.39255,-5.15983 -0.006,-0.0546 -9.00395,-15.13831 0.0391,-4.935668 -5.262,-8.143827 -14.57536,-72.887841 -17.35216,-3.638666 -36.0711,2.87012 -2.68759,-3.281628 -24.70057,-9.66726664 -21.76546,3.60543004 -9.83433,-0.815399 -12.92352,9.3933606 0.48058,1.997889 -8.01272,6.211349 -11.2933,6.101438 -13.85645,0.89332 -12.17683,8.779291 -6.37023,11.374172 -6.55435,4.855719 -0.46435,5.71752 -7.29806,5.326801 -4.98163,6.233674 -11.59162,9.436855 -8.91499,1.560733 -22.03413,20.240064 -7.15683,33.35705 -8.52981,3.63421 -10.97308,10.66286 -6.52665,9.61219 -0.32086,-0.0234 z" />
  <path
     inkscape:connector-curvature="0"
     id="c4sa_pr_mp"
     d="m 851.72243,115.37764 -8.39255,5.15983 -15.99312,-0.26362 2.34242,3.60517 -6.66059,23.96697 10.97462,11.53421 -14.07319,6.80847 5.61217,13.27791 -16.24356,3.81938 -5.1531,-3.12404 -2.82068,-9.26159 -4.2727,-1.69574 -2.28412,-16.9553 -4.25143,-4.17342 -8.154,2.76629 -5.18686,7.90407 -9.72353,-5.82592 -1.02688,2.67669 -6.27571,-1.77895 -0.43266,3.98025 -7.70471,-2.21911 1.77462,13.7907 -3.04033,0.24654 -18.21121,14.39192 0.65204,8.47349 -2.96327,2.09592 -8.05603,-2.97697 -14.51498,-20.75106 -5.20838,0.0526 -1.11987,6.905 -5.90754,2.60689 -3.03086,-5.98874 -5.00228,-0.95111 0.0585,4.20911 -18.48252,4.65127 -0.44185,4.77408 -7.46574,1.56767 -5.48456,3.78749 0.0709,3.68227 7.63143,-2.49754 5.99466,-1.94255 0.8071,0.17168 6.45885,-0.8586 0.61042,5.63769 -6.79233,8.21053 -1.92007,9.40832 2.31375,11.08295 8.67435,0.44023 5.42767,-6.62507 4.28808,-1.26857 2.90095,3.91193 -5.26277,2.18451 -5.48068,11.89396 -2.5516,10.74925 -11.94388,-2.22952 -5.26686,4.82431 -1.02336,11.01722 5.01248,1.72811 3.59598,6.54514 3.92102,-1.74444 5.52818,4.79238 -6.25136,3.11915 -0.36811,3.78807 -10.83349,1.90308 -10.11337,8.13995 -0.0243,6.25454 -4.88282,7.22163 -0.55366,1.02416 0.26106,0.15875 10.38695,3.17103 3.35027,3.20584 5.85946,-3.6111 21.21322,6.79978 16.90137,10.33986 10.90254,16.41495 8.94641,-2.43012 0.24471,0.1585 0.29267,0.12293 3.81001,-3.83894 15.84188,-0.51098 8.16832,-5.4949 13.29243,0.29941 7.40228,-1.97277 5.95693,2.60678 8.02057,-0.68734 13.91751,4.24044 6.46162,-7.95571 -3.0527,-1.2459 -3.91689,-1.59989 -9.01046,-11.70407 0.69383,-6.27298 -8.78111,-5.74623 -0.18997,-8.23093 8.33987,-25.31895 3.56814,-3.9996 11.70011,-22.08139 9.13621,-9.01354 5.27519,-1.50403 23.05062,17.70091 9.39262,-24.25788 4.01458,-77.55178 -3.34807,-11.69471 -1.9037,-16.13854 -10e-4,-0.008 z" />
  <path
     inkscape:connector-curvature="0"
     id="c4sa_pr_nw"
     d="m 550.87921,158.64612 -21.46337,5.31953 -3.46802,-0.11166 -4.36449,12.88549 -14.25538,36.97371 -3.63147,7.48043 -9.65856,7.2625 -14.39364,1.23209 -5.39628,-2.13539 -8.51563,5.71799 -13.63039,0.39152 -4.10919,-2.56093 -11.84962,-1.34221 -9.47735,-8.03832 -14.70239,-0.85443 -15.17174,-15.00643 -17.57131,-6.93314 -16.31536,3.88413 -5.67372,8.5927 -10.79677,35.16582 -5.09435,5.42436 0.0233,0.22018 3.32448,0.19291 -1.29983,27.78725 18.58442,7.59453 -2.71036,9.30239 1.52909,12.89634 -2.34393,0.21118 0.83857,12.04578 6.05482,2.22262 3.72259,5.90071 10.29433,4.68438 2.93151,3.3817 6.74832,0.0526 8.30496,4.87847 6.68777,-3.25792 -0.005,-3.48706 9.15109,-0.7044 -0.96535,10.40743 3.23967,1.21524 -0.0188,8.38121 16.90329,-3.43356 -1.03929,15.00011 2.13338,7.23487 3.84496,3.04523 5.15072,-6.1306 4.19296,-20.57521 17.40491,1.24995 -4.92909,9.03222 -4.9085,4.82353 7.69069,10.61407 0.26851,-0.0703 0.0668,-0.0176 14.4515,-15.24394 10.37947,-7.57107 13.64423,-4.032 8.34187,-4.78992 8.00151,3.43386 2.69845,5.58209 5.7269,-8.96277 18.63047,-14.74059 2.26875,-3.71701 -3.52665,-6.21737 15.17526,-10.48143 11.33372,-5.53162 3.63088,-3.84096 4.27329,3.6122 10.78409,-0.29954 5.50725,-4.95072 3.9553,4.35144 7.58454,-9.16108 0.30984,0.10535 2.12509,-9.09134 2.38405,-10.8968 -13.97373,0.88857 -7.34365,2.89011 -1.87618,-7.43569 7.89875,-6.23814 -1.40157,-8.73957 7.049,-2.4492 3.36447,-15.77138 9.75405,-5.40981 5.11596,6.22046 13.17165,-5.44465 -1.13574,-10.43179 4.40492,-0.70467 3.49025,-12.79219 13.16341,-1.09218 0.14709,-5.93738 -0.81063,-1.74421 -3.27374,-5.39106 -3.38391,0.7756 0.19771,-6.1665 4.83411,-3.54063 -7.60984,-3.92882 -14.41711,-0.82781 -12.89968,3.64681 -4.59054,3.31172 -6.81074,-1.93757 -4.26811,-4.31611 -7.31952,-0.33501 -5.2031,-6.53484 -0.59318,-9.82831 -14.25715,6.95707 -10.89298,-0.96884 -10.00935,-5.52859 0.59199,-6.78922 -0.12503,-0.009 z" />
  <path
     inkscape:connector-curvature="0"
     id="c4sa_pr_nc"
     d="m 23.634415,458.31221 -0.002,0.38658 0.140947,0.19313 -0.138898,-0.57971 z m -1.389569,-2.07277 0.250942,0.75524 0.04649,-0.035 -0.297434,-0.72026 z m -2.349208,-5.46401 -0.03682,0.15813 0.08907,0.0176 -0.05225,-0.17572 z m 42.373227,120.02545 8.581144,-9.36565 -2.240487,-4.78335 6.273658,-0.75388 0.62891,-7.95542 14.216914,1.4548 8.299883,-22.39811 6.218033,8.02769 3.08166,-9.46524 15.02757,18.0349 5.23179,8.7795 -4.87598,1.55953 5.27496,3.18941 -4.67389,6.36034 5.68853,16.15578 -2.1799,2.87412 0.78171,10.00643 3.57516,1.13877 -0.19608,17.95015 -2.70996,2.52468 12.98101,8.71499 10.27492,17.12169 -5.31252,3.17682 3.84109,10.35713 -1.00065,8.06137 2.1896,5.14757 4.48918,-3.79507 0.71691,-7.2189 17.35137,-7.39151 8.96055,-7.79271 7.35035,-1.26356 0.46754,4.43956 -6.99393,6.81102 -2.28108,-1.17625 2.29429,14.83977 2.92421,9.06713 4.25238,1.49474 5.39426,6.76865 11.2971,2.40964 10.91146,-3.76363 3.00306,-13.28845 17.46856,-3.42639 2.29115,-9.72936 5.7673,-5.82944 6.55,-0.31604 7.22482,-3.59784 -0.16641,-5.14209 7.07644,1.19328 2.95475,-2.8074 6.50278,4.03561 8.2059,-4.66715 0.55719,-5.70231 4.26684,1.579 2.41082,-4.5961 -2.64373,-8.1903 5.60203,-2.63048 0.74044,-6.48761 7.28058,-12.97136 15.42741,9.76341 -1.7741,4.7683 10.19134,3.06889 4.15621,-1.35029 9.98379,6.24261 1.85763,3.15658 14.69609,-16.65723 4.27782,-1.98095 17.46465,-1.41999 0.41637,2.10344 10.48857,5.06642 1.13172,-4.01441 5.37454,5.36458 4.49769,-0.24553 -0.24048,-1.43088 19.45797,-3.93372 0.97638,-9.58839 3.56738,-9.53392 11.97212,-0.38534 10.75097,-7.48263 22.05219,-4.18798 6.79828,-11.81006 2.05122,-7.93739 -1.87632,-7.18456 -0.0262,-10.84814 -0.24206,-0.15716 -8.07767,-3.73323 -12.72747,-13.44536 -12.60451,-22.16673 -4.60569,-0.77185 -13.66455,-11.96797 -3.95829,-8.53108 33.24307,-64.17617 -2.66777,-1.46009 1.16676,-8.03827 2.69839,-2.93809 7.72787,-20.39381 -1.28969,-2.62264 -0.26851,0.0703 -7.69069,-10.61407 4.9085,-4.82353 4.92909,-9.03222 -17.40491,-1.24995 -4.19296,20.57521 -5.15072,6.1306 -3.84496,-3.04523 -2.13338,-7.23487 1.03929,-15.00011 -16.90329,3.43356 0.0188,-8.38121 -3.23967,-1.21524 0.96535,-10.40743 -9.15109,0.7044 0.005,3.48706 -6.68777,3.25792 -8.30496,-4.87847 -6.74832,-0.0526 -2.93151,-3.3817 -10.29433,-4.68438 -3.72259,-5.90071 -6.05482,-2.22262 -0.83857,-12.04578 2.34393,-0.21118 -1.52909,-12.89634 2.71036,-9.30239 -18.58442,-7.59453 1.29983,-27.78725 -3.32448,-0.19291 -0.13057,0.62923 -8.67316,5.43905 -6.95598,7.72191 -8.9327,5.0507 -7.46132,12.29884 -7.1035,4.47314 -6.91808,-0.49659 -1.96548,8.18981 -4.19104,3.83647 -15.36691,-1.85581 -13.86892,2.7331 -18.50283,-3.01148 -3.25686,2.58127 -7.90497,-10.18173 0.60434,-14.72175 9.48069,-11.94263 4.92589,-9.37204 -2.12848,-8.22638 -0.89087,-12.04199 -5.53084,-11.62231 0.77027,-2.46829 -4.19768,-12.38527 -3.33078,-3.77723 -3.92686,-11.92627 -3.91029,-7.16187 -19.5011,-16.73605 -1.04982,6.77211 -1.94664,50.06453 -7.97075,175.30163 -10.43297,4.72422 -7.06062,0.81502 -7.37964,3.62631 -8.01778,10.25701 -9.06734,4.80294 -7.09245,9.85443 -7.22102,-5.78896 -13.62803,-2.44138 -16.34199,3.86397 -16.210491,-0.25823 -11.935246,-7.94359 -12.42199,0.0758 -11.269009,-4.01726 -3.861031,-9.38347 2.313775,-12.54583 -4.771126,-8.8222 -13.143505,-11.34634 -8.981601,2.0576 -0.70277,5.74982 -6.762151,17.25945 L 0.5,410.7874 l 5.293072,7.85596 1.350305,8.94964 4.867838,4.25447 5.973036,9.84312 5.63749,16.23525 5.643406,24.88206 9.747735,36.81966 12.334309,25.52008 10.865407,25.65326 0.05653,0 z" />
  <path
     inkscape:connector-curvature="0"
     id="c4sa_pr_fs"
     d="m 605.38219,294.23703 -0.30984,-0.10535 -7.58454,9.16108 -3.9553,-4.35144 -5.50725,4.95072 -10.78409,0.29954 -4.27329,-3.6122 -3.63088,3.84096 -11.33372,5.53162 -15.17526,10.48143 3.52665,6.21737 -2.26875,3.71701 -18.63047,14.74059 -5.7269,8.96277 -2.69845,-5.58209 -8.00151,-3.43386 -8.34187,4.78992 -13.64423,4.032 -10.37947,7.57107 -14.4515,15.24394 -0.0668,0.0176 1.28969,2.62264 -7.72787,20.39381 -2.69839,2.93809 -1.16676,8.03827 2.66777,1.46009 -33.24307,64.17617 3.95829,8.53108 13.66455,11.96797 4.60569,0.77185 12.60451,22.16673 12.72747,13.44536 8.07767,3.73323 0.24206,0.15716 0.28802,0.14064 11.5823,3.80265 6.92076,-1.78736 12.77534,-7.71149 5.32876,-1.77065 18.49986,8.76346 10.49356,2.87442 21.08391,-9.76254 1.39279,1.08718 14.39836,-6.92411 2.61581,-7.31007 0.61147,-0.54363 -1.01856,-6.81671 -7.32791,-14.38421 -4.73828,-14.58347 -2.99775,-3.67793 3.91794,-5.55376 9.58398,-4.63166 8.99652,-9.92756 1.73685,-4.95262 12.36645,-13.49071 -1.65566,-1.58366 7.14966,-8.68927 5.9975,0.23853 4.25623,-4.02339 4.21579,1.59949 7.49423,-10.23455 11.50378,-1.52702 2.49844,-4.59021 15.76274,0.33248 0.24698,2.75787 7.8474,5.74722 0.059,0.0413 4.07296,-9.15985 32.44111,-22.71217 5.45541,-0.96734 4.32224,-5.89575 -2.27412,-7.09342 6.22319,-13.78283 -1.42691,-9.10328 5.6616,-6.47984 -3.1112,-3.0818 2.90476,-4.45562 0.28946,-0.0526 -0.24471,-0.1585 -8.94641,2.43012 -10.90254,-16.41495 -16.90137,-10.33986 -21.21322,-6.79978 -5.85946,3.6111 -3.35027,-3.20584 -10.38695,-3.17103 -0.26106,-0.15875 -0.27759,-0.14137 -13.41242,-6.94111 -2.33653,-7.89345 -12.07584,6.60716 -11.72013,-0.4934 -0.32038,0.0704 z" />
  <path
     inkscape:connector-curvature="0"
     id="c4sa_pr_wc"
     d="m 138.01094,794.73399 -0.50939,0.39089 0.18843,0.0356 0.32096,-0.42646 z m -42.156303,-34.70309 -0.04659,0.28317 0.11657,0.0177 -0.06998,-0.30088 z m 236.164863,-5.46779 -0.0854,0.15908 0.0735,0 0.0119,-0.15908 z m 1.54177,-0.54831 -0.95889,0.22989 0.82547,0.3714 0.13342,-0.60129 z m -15.53152,-1.85712 -0.0356,0.28294 0.0736,0 -0.038,-0.28294 z m 33.55401,-0.46 -0.20495,0.76065 0.0882,0 0.11671,-0.76065 z m -262.445013,-6.48829 -0.04106,0.19438 0.31343,-0.0706 -0.272367,-0.12375 z m 1.186655,-6.81972 0.01792,0.19419 0.07585,-0.0353 -0.09377,-0.15884 z m -2.257012,-9.63985 -0.07034,0.19415 0.07258,0.0177 -0.0022,-0.21188 z m -14.270054,-29.04863 0.0074,0.38717 0.176204,0.0177 -0.183627,-0.40485 z m -5.882831,-2.20089 -0.252205,0.28171 0.225445,-0.0703 0.02676,-0.21136 z m 1.31914,-4.25968 -0.07579,0.0354 0.256833,0.15827 -0.181043,-0.19369 z m -2.946155,-0.3871 0.231023,0.61601 0.1793,-0.29923 -0.410323,-0.31678 z m -1.103952,-1.90042 -0.06496,0.10554 0.103356,0 -0.0384,-0.10554 z m -2.030268,-19.73077 0.01586,0.24587 0.08878,0 -0.104641,-0.24587 z m 0.549962,-0.0529 -0.258226,0.12312 0.20506,0.0351 0.05317,-0.15818 z m -1.433378,-100.35096 22.24302,36.03225 3.735435,23.91891 0.5721,13.9676 -2.54621,18.19151 -10.355536,11.08826 -7.447441,-4.83325 -6.659173,7.29421 5.230378,19.73744 8.110529,9.19147 8.408804,12.97071 5.563058,11.43115 2.665103,13.88093 -7.057002,11.70486 -0.105921,13.29543 4.624297,-0.38979 -1.396347,-8.05709 11.194302,-4.15858 7.70071,0.84938 4.06348,4.72542 -3.46224,8.71361 0.54524,5.2109 8.73402,-2.69444 11.50834,6.48919 4.79198,-0.9754 0.51798,11.69476 4.65342,0.23066 10.6675,11.12437 3.53796,-1.38698 12.57473,3.2899 16.09043,-8.30199 12.31475,-11.54187 9.68534,-3.35296 11.33781,1.52553 6.7386,-6.98718 8.53666,1.06372 9.07427,3.65281 10.05242,-4.64569 10.58419,1.79079 23.36004,-16.03245 3.48414,-4.05291 11.04294,-1.14996 14.59305,-3.59063 16.08687,5.27151 16.2155,0.70792 8.11431,-5.14811 12.03578,-2.29909 0.0973,0 -4.23934,-12.76758 -9.26062,-0.0357 2.76817,-4.2909 13.32281,-6.08885 -3.64192,-8.18465 -13.06116,-3.59612 -1.45564,-2.64392 -21.1003,1.53361 -8.68842,-2.62676 12.25463,-17.85728 4.49667,-13.63368 14.1247,-4.85287 5.30088,1.70568 -1.60868,-8.19058 -3.71226,-2.67115 1.56795,-7.62415 -2.68834,-6.91836 12.39653,-6.09173 11.348,0.3337 -0.565,-2.8435 6.9374,-7.07156 6.17165,4.3864 8.59406,-4.50951 5.61134,-11.34952 2.87876,-12.11277 -0.41688,-0.82841 -4.49769,0.24554 -5.37454,-5.36459 -1.13172,4.01441 -10.48857,-5.06642 -0.41637,-2.10344 -17.46465,1.41999 -4.27782,1.98095 -14.69609,16.65724 -1.85763,-3.15658 -9.98379,-6.24261 -4.15621,1.35028 -10.19134,-3.06889 1.7741,-4.76829 -15.42741,-9.76341 -7.28058,12.97136 -0.74044,6.48761 -5.60203,2.63048 2.64373,8.1903 -2.41082,4.5961 -4.26684,-1.579 -0.55719,5.70231 -8.2059,4.66715 -6.50278,-4.03561 -2.95475,2.8074 -7.07644,-1.19328 0.16641,5.14209 -7.22482,3.59784 -6.55,0.31604 -5.7673,5.82944 -2.29115,9.72936 -17.46856,3.42639 -3.00306,13.28845 -10.91146,3.76363 -11.2971,-2.40964 -5.39426,-6.76865 -4.25238,-1.49474 -2.92421,-9.06713 -2.29429,-14.83977 2.28108,1.17625 6.99393,-6.81102 -0.46754,-4.43956 -7.35035,1.26356 -8.96055,7.79271 -17.35137,7.39151 -0.71691,7.2189 -4.48918,3.79507 -2.1896,-5.14757 1.00065,-8.06137 -3.84109,-10.35713 5.31252,-3.17682 -10.27492,-17.12169 -12.98101,-8.71499 2.70996,-2.52468 0.19608,-17.95015 -3.57516,-1.13877 -0.78171,-10.00643 2.1799,-2.87412 -5.68853,-16.15578 4.67389,-6.36034 -5.27496,-3.18941 4.87598,-1.55953 -5.23179,-8.7795 -15.02757,-18.0349 -3.08166,9.46524 -6.218033,-8.02769 -8.299883,22.39811 -14.216914,-1.4548 -0.62891,7.95542 -6.273658,0.75388 2.240487,4.78335 -8.581144,9.36565 0.002,0.0176 z" />
</svg>
