<?xml version="1.0" encoding="UTF-8" standalone="no"?>
<!-- Created with Inkscape (http://www.inkscape.org/) -->

<svg
   xmlns:dc="http://purl.org/dc/elements/1.1/"
   xmlns:cc="http://creativecommons.org/ns#"
   xmlns:rdf="http://www.w3.org/1999/02/22-rdf-syntax-ns#"
   xmlns:svg="http://www.w3.org/2000/svg"
   xmlns="http://www.w3.org/2000/svg"
   xmlns:sodipodi="http://sodipodi.sourceforge.net/DTD/sodipodi-0.dtd"
   xmlns:inkscape="http://www.inkscape.org/namespaces/inkscape"
   id="svg2"
   version="1.1"
   inkscape:version="0.48.4 r9939"
   width="1138.75"
   height="897.3625"
   xml:space="preserve"
   sodipodi:docname="Code for countries.pdf"><metadata
     id="metadata8"><rdf:RDF><cc:Work
         rdf:about=""><dc:format>image/svg+xml</dc:format><dc:type
           rdf:resource="http://purl.org/dc/dcmitype/StillImage" /><dc:title></dc:title></cc:Work></rdf:RDF></metadata><defs
     id="defs6"><clipPath
       clipPathUnits="userSpaceOnUse"
       id="clipPath22"><path
         d="m 0,717.89 911,0 L 911,0 0,0 0,717.89 z"
         id="path24" /></clipPath></defs><sodipodi:namedview
     pagecolor="#ffffff"
     bordercolor="#666666"
     borderopacity="1"
     objecttolerance="10"
     gridtolerance="10"
     guidetolerance="10"
     inkscape:pageopacity="0"
     inkscape:pageshadow="2"
     inkscape:window-width="640"
     inkscape:window-height="480"
     id="namedview4"
     showgrid="false"
     inkscape:zoom="0.26299294"
     inkscape:cx="291.44641"
     inkscape:cy="209.42984"
     inkscape:window-x="65"
     inkscape:window-y="24"
     inkscape:window-maximized="0"
     inkscape:current-layer="g10" /><g
     id="g10"
     inkscape:groupmode="layer"
     inkscape:label="Code for countries"
     transform="matrix(1.25,0,0,-1.25,0,897.3625)"><g
       id="g12"
       transform="translate(444.7832,321.6572)" /><g
       id="g3194"><g
         id="g3157"><g
           id="g26"
           transform="translate(517.5547,427.13721)"><path
             d="m 0,0 -2.983,-2.292 c -1.652,2.144 -3.629,3.771 -5.937,4.885 -2.311,1.1 -4.847,1.656 -7.613,1.656 -3.024,0 -5.821,-0.725 -8.398,-2.177 -2.575,-1.45 -4.569,-3.398 -5.986,-5.844 -1.418,-2.449 -2.126,-5.2 -2.126,-8.258 0,-4.619 1.587,-8.47 4.753,-11.563 3.17,-3.09 7.163,-4.633 11.987,-4.633 5.309,0 9.743,2.075 13.32,6.231 L 0,-24.26 c -1.886,-2.404 -4.247,-4.265 -7.066,-5.577 -2.827,-1.314 -5.982,-1.97 -9.467,-1.97 -6.627,0 -11.857,2.206 -15.686,6.618 -3.211,3.723 -4.816,8.224 -4.816,13.499 0,5.542 1.945,10.209 5.836,13.995 3.886,3.784 8.759,5.679 14.615,5.679 3.536,0 6.73,-0.7 9.581,-2.1 C -4.153,4.485 -1.817,2.523 0,0"
             style="fill:#3264ab;fill-opacity:1;fill-rule:nonzero;stroke:none"
             id="path28"
             inkscape:connector-curvature="0" /></g><g
           id="g30"
           transform="translate(543.3652,431.4395)"><path
             d="m 0,0 c -2.809,0 -5.461,-0.731 -7.974,-2.192 -2.512,-1.46 -4.472,-3.428 -5.88,-5.902 -1.409,-2.476 -2.115,-5.234 -2.115,-8.274 0,-4.502 1.561,-8.306 4.68,-11.406 3.123,-3.103 6.884,-4.653 11.289,-4.653 2.939,0 5.66,0.712 8.163,2.14 2.502,1.423 4.454,3.377 5.855,5.851 1.402,2.475 2.102,5.221 2.102,8.248 0,3.006 -0.7,5.724 -2.102,8.155 C 12.617,-5.6 10.645,-3.652 8.097,-2.192 5.553,-0.731 2.854,0 0,0 m -0.169,3.682 c 5.738,0 10.539,-1.915 14.405,-5.744 3.868,-3.828 5.799,-8.541 5.799,-14.141 0,-5.545 -1.928,-10.25 -5.786,-14.111 -3.857,-3.864 -8.56,-5.795 -14.109,-5.795 -5.619,0 -10.361,1.922 -14.225,5.767 -3.866,3.846 -5.801,8.502 -5.801,13.96 0,3.641 0.882,7.014 2.644,10.121 1.76,3.108 4.16,5.544 7.2,7.303 3.044,1.759 6.334,2.64 9.873,2.64"
             style="fill:#3264ab;fill-opacity:1;fill-rule:nonzero;stroke:none"
             id="path32"
             inkscape:connector-curvature="0" /></g><g
           id="g34"
           transform="translate(574.6299,399.8623)"><path
             d="m 0,0 4.379,0 c 5.237,0 8.867,0.327 10.896,0.978 2.848,0.926 5.09,2.592 6.719,5.005 1.631,2.409 2.448,5.356 2.448,8.84 0,3.654 -0.884,6.776 -2.653,9.365 -1.768,2.591 -4.232,4.371 -7.391,5.329 -2.37,0.72 -6.276,1.081 -11.72,1.081 L 0,30.598 0,0 z m -3.636,-3.579 0,37.885 7.86,0 c 5.666,0 9.777,-0.455 12.333,-1.366 3.677,-1.286 6.55,-3.518 8.618,-6.697 2.073,-3.176 3.104,-6.96 3.104,-11.357 0,-3.795 -0.823,-7.134 -2.462,-10.02 C 24.182,1.982 22.05,-0.148 19.433,-1.519 16.814,-2.892 13.146,-3.579 8.42,-3.579 l -12.056,0 z"
             style="fill:#3264ab;fill-opacity:1;fill-rule:nonzero;stroke:none"
             id="path36"
             inkscape:connector-curvature="0" /></g><g
           id="g38"
           transform="translate(610.2744,434.1685)"><path
             d="m 0,0 21.712,0 0,-3.708 -17.924,0 0,-11.874 17.768,0 0,-3.708 -17.768,0 0,-14.886 17.768,0 0,-3.709 L 0,-37.885 0,0 z"
             style="fill:#3264ab;fill-opacity:1;fill-rule:nonzero;stroke:none"
             id="path40"
             inkscape:connector-curvature="0" /></g><g
           id="g42"
           transform="translate(659.9209,423.57179)"><path
             d="m 0,0 c 0.131,0.376 0.229,0.697 0.288,0.959 0.065,0.264 0.095,0.499 0.095,0.708 0,0.685 -0.143,1.204 -0.431,1.556 -0.287,0.352 -0.699,0.531 -1.237,0.531 -1.122,0 -2.529,-0.998 -4.221,-2.994 -1.689,-1.997 -3.701,-5.034 -6.018,-9.114 l 8.258,0 -0.454,-0.419 -8.099,0 -7.343,-11.819 c -2.308,-3.724 -4.656,-6.471 -7.034,-8.233 -2.385,-1.768 -4.931,-2.647 -7.644,-2.647 -1.974,0 -3.507,0.371 -4.595,1.115 -1.086,0.747 -1.632,1.791 -1.632,3.133 0,0.955 0.346,1.753 1.035,2.402 0.691,0.646 1.554,0.971 2.596,0.971 0.267,0 0.533,-0.015 0.792,-0.036 0.267,-0.027 0.528,-0.063 0.802,-0.109 l -0.074,-0.259 c -0.086,0.011 -0.159,0.02 -0.224,0.02 l -0.308,0 c -0.81,0 -1.473,-0.28 -1.999,-0.837 -0.524,-0.554 -0.786,-1.256 -0.786,-2.116 0,-1.157 0.417,-2.113 1.254,-2.854 0.838,-0.748 1.921,-1.12 3.25,-1.12 2.041,0 4.082,0.932 6.12,2.794 2.038,1.864 4.525,5.142 7.457,9.845 l 6.083,9.75 -3.007,0 0.348,0.419 2.877,0 3.353,4.985 c 1.634,2.454 3.297,4.324 4.982,5.611 1.683,1.29 3.321,1.933 4.907,1.933 0.823,0 1.485,-0.189 1.991,-0.57 C 1.891,3.227 2.143,2.74 2.143,2.144 2.143,1.557 1.95,1.073 1.571,0.692 1.196,0.317 0.67,0.084 0,0"
             style="fill:#231f20;fill-opacity:1;fill-rule:nonzero;stroke:none"
             id="path44"
             inkscape:connector-curvature="0" /></g><g
           id="g46"
           transform="translate(660.56149,413.6792)"><path
             d="M 0,0 C 0,0.61 -0.14,1.094 -0.414,1.446 -0.688,1.801 -1.064,1.98 -1.537,1.98 -2.1,1.98 -2.725,1.757 -3.417,1.311 -4.106,0.864 -4.808,0.226 -5.518,-0.605 c -1.218,-1.456 -2.17,-2.881 -2.864,-4.286 -0.69,-1.403 -1.037,-2.616 -1.037,-3.627 0,-0.65 0.163,-1.173 0.485,-1.575 0.326,-0.404 0.738,-0.606 1.238,-0.606 0.636,0 1.388,0.327 2.256,0.983 0.866,0.653 1.708,1.541 2.526,2.661 0.892,1.245 1.599,2.515 2.127,3.802 C -0.264,-1.962 0,-0.879 0,0 M 8.825,-0.859 9.052,-1.006 C 8.329,-1.888 7.616,-2.533 6.924,-2.95 6.226,-3.364 5.496,-3.571 4.727,-3.571 c -0.757,0 -1.378,0.191 -1.858,0.576 -0.485,0.386 -0.84,0.953 -1.056,1.713 -0.211,-1.307 -0.634,-2.525 -1.284,-3.655 -0.646,-1.128 -1.53,-2.203 -2.655,-3.215 -1.065,-0.928 -2.139,-1.647 -3.232,-2.154 -1.094,-0.507 -2.093,-0.759 -2.996,-0.759 -1.001,0 -1.754,0.285 -2.254,0.861 -0.498,0.573 -0.752,1.435 -0.752,2.58 0,1.322 0.481,2.693 1.442,4.116 0.956,1.424 2.328,2.782 4.113,4.076 0.788,0.562 1.626,1.004 2.508,1.338 0.876,0.328 1.678,0.493 2.397,0.493 1.429,0 2.418,-1.196 2.968,-3.587 0.013,-0.054 0.026,-0.094 0.038,-0.132 0.158,-0.61 0.467,-1.088 0.925,-1.43 0.459,-0.341 1.023,-0.512 1.696,-0.512 0.733,0 1.419,0.189 2.058,0.557 0.645,0.374 1.322,0.991 2.04,1.846"
             style="fill:#231f20;fill-opacity:1;fill-rule:nonzero;stroke:none"
             id="path48"
             inkscape:connector-curvature="0" /></g><g
           id="g50"
           transform="translate(678.34959,415.86079)"><path
             d="m 0,0 c -0.552,-0.762 -0.985,-1.499 -1.291,-2.22 -0.313,-0.719 -0.47,-1.324 -0.47,-1.812 0,-0.431 0.111,-0.746 0.331,-0.953 0.221,-0.204 0.564,-0.313 1.025,-0.313 0.513,0 1.162,0.205 1.94,0.606 0.785,0.403 1.486,0.928 2.109,1.575 L 3.826,-3.318 C 3.145,-4.05 2.372,-4.627 1.521,-5.048 0.662,-5.471 -0.166,-5.682 -0.972,-5.682 c -0.805,0 -1.431,0.207 -1.878,0.614 -0.444,0.409 -0.667,0.983 -0.667,1.714 0,0.304 0.044,0.627 0.137,0.96 0.091,0.336 0.229,0.695 0.41,1.069 -2.322,-1.766 -4.251,-3.565 -5.798,-5.399 -1.543,-1.833 -2.836,-3.86 -3.874,-6.087 l -2.619,-0.141 7.77,12.49 2.435,0.149 -4.894,-6.946 0.131,-0.106 c 0.966,1.124 2.022,2.219 3.176,3.296 1.153,1.072 2.405,2.144 3.747,3.206 l 0.075,0.057 c 0.415,0.461 0.779,0.704 1.095,0.732 L 0,0 z"
             style="fill:#231f20;fill-opacity:1;fill-rule:nonzero;stroke:none"
             id="path52"
             inkscape:connector-curvature="0" /></g><g
           id="g54"
           transform="translate(503.7471,375.0928)"><path
             d="m 0,0 -5.384,-4.754 c -1.892,2.63 -3.814,3.947 -5.774,3.947 -0.953,0 -1.735,-0.255 -2.341,-0.763 -0.606,-0.512 -0.91,-1.089 -0.91,-1.73 0,-0.642 0.217,-1.247 0.65,-1.817 0.589,-0.76 2.366,-2.395 5.334,-4.907 2.773,-2.319 4.455,-3.784 5.045,-4.389 1.474,-1.486 2.52,-2.911 3.134,-4.272 0.615,-1.358 0.923,-2.839 0.923,-4.452 0,-3.134 -1.085,-5.719 -3.25,-7.761 -2.165,-2.044 -4.991,-3.065 -8.473,-3.065 -2.723,0 -5.092,0.665 -7.11,1.999 -2.017,1.329 -3.747,3.427 -5.185,6.279 l 6.112,3.688 c 1.836,-3.372 3.952,-5.059 6.345,-5.059 1.246,0 2.296,0.365 3.146,1.089 0.848,0.727 1.274,1.565 1.274,2.518 0,0.866 -0.322,1.732 -0.963,2.597 -0.64,0.867 -2.056,2.189 -4.238,3.975 -4.163,3.39 -6.85,6.009 -8.065,7.852 -1.213,1.844 -1.82,3.683 -1.82,5.519 0,2.646 1.012,4.918 3.029,6.815 2.019,1.896 4.51,2.844 7.474,2.844 1.906,0 3.722,-0.443 5.448,-1.325 C -3.877,3.946 -2.009,2.334 0,0"
             style="fill:#ed1c24;fill-opacity:1;fill-rule:nonzero;stroke:none"
             id="path56"
             inkscape:connector-curvature="0" /></g><g
           id="g58"
           transform="translate(539.7178,374.1284)"><path
             d="m 0,0 c -3.532,0 -6.505,-1.226 -8.915,-3.686 -2.406,-2.457 -3.611,-5.581 -3.611,-9.373 0,-4.224 1.513,-7.563 4.549,-10.023 2.355,-1.92 5.059,-2.88 8.109,-2.88 3.447,0 6.385,1.242 8.812,3.737 2.426,2.494 3.637,5.566 3.637,9.216 0,3.638 -1.219,6.716 -3.663,9.233 C 6.472,-1.257 3.5,0 0,0 m 0.079,7.118 c 5.404,0 10.049,-1.956 13.939,-5.868 3.889,-3.915 5.834,-8.683 5.834,-14.309 0,-5.572 -1.92,-10.289 -5.755,-14.15 -3.838,-3.862 -8.493,-5.79 -13.965,-5.79 -5.735,0 -10.497,1.979 -14.29,5.946 -3.793,3.964 -5.691,8.671 -5.691,14.125 0,3.65 0.881,7.011 2.649,10.074 1.767,3.062 4.198,5.492 7.289,7.281 3.092,1.795 6.421,2.691 9.99,2.691"
             style="fill:#ed1c24;fill-opacity:1;fill-rule:nonzero;stroke:none"
             id="path60"
             inkscape:connector-curvature="0" /></g><g
           id="g62"
           transform="translate(576.5732,380.2827)"><path
             d="m 0,0 7.296,0 0,-24.699 c 0,-2.125 0.185,-3.631 0.558,-4.511 0.375,-0.883 0.987,-1.588 1.843,-2.116 0.858,-0.526 1.893,-0.791 3.106,-0.791 1.278,0 2.384,0.295 3.308,0.881 0.927,0.587 1.567,1.339 1.923,2.247 0.354,0.907 0.531,2.64 0.531,5.201 l 0,23.788 7.296,0 0,-22.769 c 0,-3.845 -0.215,-6.511 -0.65,-7.999 -0.433,-1.486 -1.256,-2.922 -2.479,-4.31 -1.219,-1.385 -2.627,-2.407 -4.219,-3.077 -1.593,-0.665 -3.444,-0.998 -5.558,-0.998 -2.767,0 -5.177,0.635 -7.23,1.907 -2.051,1.273 -3.518,2.864 -4.403,4.778 C 0.442,-30.555 0,-27.323 0,-22.769 L 0,0 z"
             style="fill:#ed1c24;fill-opacity:1;fill-rule:nonzero;stroke:none"
             id="path64"
             inkscape:connector-curvature="0" /></g><g
           id="g66"
           transform="translate(617.51559,380.2827)"><path
             d="m 0,0 21.109,0 0,-7.166 -6.958,0 0,-31.027 -7.373,0 0,31.027 L 0,-7.166 0,0 z"
             style="fill:#ed1c24;fill-opacity:1;fill-rule:nonzero;stroke:none"
             id="path68"
             inkscape:connector-curvature="0" /></g><g
           id="g70"
           transform="translate(653.99319,380.2827)"><path
             d="m 0,0 7.374,0 0,-14.41 12.749,0 0,14.41 7.348,0 0,-38.193 -7.348,0 0,16.747 -12.749,0 0,-16.747 -7.374,0 L 0,0 z"
             style="fill:#ed1c24;fill-opacity:1;fill-rule:nonzero;stroke:none"
             id="path72"
             inkscape:connector-curvature="0" /></g><g
           id="g74"
           transform="translate(500.1631,320.0078)"><path
             d="m 0,0 -5.452,-13.952 10.875,0 L 0,0 z m -3.97,10.773 7.845,0 15.633,-40.639 -8.04,0 -3.181,8.37 -16.584,0 -3.307,-8.37 -8.04,0 15.674,40.639 z"
             style="fill:#ed1c24;fill-opacity:1;fill-rule:nonzero;stroke:none"
             id="path76"
             inkscape:connector-curvature="0" /></g><g
           id="g78"
           transform="translate(525.7598,330.7813)"><path
             d="m 0,0 20.17,0 0,-7.542 -12.487,0 0,-7.376 12.487,0 0,-7.434 -12.487,0 0,-18.288 L 0,-40.64 0,0 z"
             style="fill:#ed1c24;fill-opacity:1;fill-rule:nonzero;stroke:none"
             id="path80"
             inkscape:connector-curvature="0" /></g><g
           id="g82"
           transform="translate(561.0723,314.89259)"><path
             d="m 0,0 2.422,0 c 2.461,0 4.155,0.326 5.081,0.975 0.931,0.648 1.391,1.72 1.391,3.214 0,0.886 -0.226,1.657 -0.686,2.315 C 7.749,7.16 7.132,7.632 6.362,7.916 5.591,8.205 4.177,8.347 2.119,8.347 L 0,8.347 0,0 z m -7.736,15.889 8.196,0 c 4.488,0 7.686,-0.4 9.589,-1.201 1.905,-0.802 3.436,-2.13 4.594,-3.993 1.16,-1.86 1.74,-4.06 1.74,-6.603 0,-2.671 -0.64,-4.904 -1.92,-6.699 -1.28,-1.797 -3.208,-3.154 -5.788,-4.078 l 9.628,-18.066 -8.455,0 -9.141,17.211 -0.707,0 0,-17.211 -7.736,0 0,40.64 z"
             style="fill:#ed1c24;fill-opacity:1;fill-rule:nonzero;stroke:none"
             id="path84"
             inkscape:connector-curvature="0" /></g><path
           d="m 585.082,330.781 7.678,0 0,-40.64 -7.678,0 0,40.64 z"
           style="fill:#ed1c24;fill-opacity:1;fill-rule:nonzero;stroke:none"
           id="path86"
           inkscape:connector-curvature="0" /><g
           id="g88"
           transform="translate(638.8203,323.6377)"><path
             d="m 0,0 -5.415,-5.153 c -3.676,3.885 -7.818,5.833 -12.42,5.833 -3.883,0 -7.153,-1.328 -9.813,-3.983 -2.66,-2.656 -3.987,-5.927 -3.987,-9.82 0,-2.709 0.587,-5.116 1.765,-7.217 1.179,-2.102 2.846,-3.75 4.998,-4.948 2.153,-1.201 4.548,-1.802 7.177,-1.802 2.244,0 4.299,0.424 6.157,1.263 1.856,0.839 3.899,2.363 6.123,4.575 l 5.249,-5.473 c -3.002,-2.929 -5.841,-4.961 -8.511,-6.093 -2.671,-1.134 -5.719,-1.702 -9.146,-1.702 -6.32,0 -11.49,2.003 -15.513,6.009 -4.024,4.007 -6.037,9.142 -6.037,15.406 0,4.052 0.917,7.65 2.75,10.802 1.834,3.15 4.456,5.681 7.874,7.598 3.419,1.914 7.096,2.873 11.039,2.873 3.353,0 6.58,-0.708 9.683,-2.124 C -4.923,4.625 -2.249,2.614 0,0"
             style="fill:#ed1c24;fill-opacity:1;fill-rule:nonzero;stroke:none"
             id="path90"
             inkscape:connector-curvature="0" /></g><g
           id="g92"
           transform="translate(661.95799,320.0078)"><path
             d="m 0,0 -5.45,-13.952 10.869,0 L 0,0 z m -3.971,10.773 7.845,0 15.632,-40.639 -8.04,0 -3.181,8.37 -16.584,0 -3.305,-8.37 -8.04,0 15.673,40.639 z"
             style="fill:#ed1c24;fill-opacity:1;fill-rule:nonzero;stroke:none"
             id="path94"
             inkscape:connector-curvature="0" /></g></g><g
         transform="translate(240.79691,400.25729)"
         id="g96"><g
           id="g3152"><path
             transform="translate(203.98629,-78.60009)"
             d="m 0,0 -15.959,0 0,-9.215 5.683,0 0,-6.254 -2.952,0 -7.317,0 -2.959,0 0,-13.639 0,-10.31 0,-1.161 15.084,0 0,9.347 -4.808,0 0,6.419 13.228,0 0,0.488 0.003,0 0,23.827 L 0,-0.498 0,0 z"
             style="fill:#231f20;fill-opacity:1;fill-rule:nonzero;stroke:none"
             id="path14" /><path
             transform="translate(-240.79691,-400.25729)"
             d="m 381.833,240.769 -40.968,0 0,28.955 40.968,0 0,-28.955 z"
             style="fill:#ed1c24;fill-opacity:1;fill-rule:nonzero;stroke:none"
             id="path16" /><path
             d="m 0,0 0,6.693 156.659,0 11.974,0 0,9.349 0,4.578 0,9.138 0,0.21 -64.156,0 -23.714,0 -7.823,0 -20.671,0 -44.366,0 0,6.747 125.675,0 11.976,0 0,9.349 0,4.478 0,9.238 0,0.11 -122.437,0 0,7.754 57.017,0 0,9.22 -57.017,0 -11.973,0 0,-11.478 0,-4.369 0,-9.347 11.973,0 110.461,0 0,-6.737 -125.675,0 -8.558,0 -3.414,0 0,-13.837 0,-9.227 0,-0.121 56.338,0 20.671,0 7.823,0 23.714,0 52.182,0 0,-6.835 -156.659,0 -11.973,0 0,-10.347 0,-12.721 6.612,0 0,-0.064 200.927,0 0,-6.641 -141.183,0 -11.975,0 0,-9.349 0,-4.622 0,-9.098 0,-0.254 78.973,0 2.4,0 10.437,0 3.251,0 20.098,0 8.033,0 15.592,0 0,-6.686 -23.581,0 -10.061,0 -12.547,0 -10.77,0 -34.423,0 -11.979,0 0,-9.349 0,-13.717 4.404,0 0,-0.119 72.435,0 0,-6.748 -56.574,0 -11.973,0 0,-9.354 0,-3.678 0,-10.036 0,-0.309 15.785,0 6.229,0 7.822,0 15.335,0 27.15,0 0,-6.812 -66.998,0 -11.978,0 0,-9.346 0,-3.681 0,-10.037 0,-0.318 18.317,0 38.592,0 6.326,0 0,-14.771 5.645,0 0,23.065 -11.971,0 0,-0.069 -44.931,0 0,6.94 66.998,0 2.614,0 9.363,0 0,13.9 0,9.352 -11.977,0 -27.15,0 -15.335,0 -7.822,0 -6.229,0 -3.812,0 0,6.934 56.574,0 11.975,0 0,10.347 0,3.488 0,9.228 0,0.126 -76.835,0 0,6.744 34.423,0 33.378,0 23.581,0 2.094,0 9.885,0 0,13.779 0,9.284 0,0.067 -27.571,0 -10.539,0 -15.885,0 -4.958,0 -10.437,0 -2.4,0 -66.998,0 0,6.879 141.183,0 6.807,0 5.17,0 0,12.733 0,10.334 0,0.013 L 0,0 z"
             style="fill:#231f20;fill-opacity:1;fill-rule:nonzero;stroke:none"
             id="path98"
             inkscape:connector-curvature="0" /></g></g></g></g></svg>